<?xml version="1.0" encoding="UTF-8"?>
<!DOCTYPE svg PUBLIC "-//W3C//DTD SVG 1.1//EN" "http://www.w3.org/Graphics/SVG/1.1/DTD/svg11.dtd">
<!-- Creator: CorelDRAW 2021 (64-Bit) -->
<svg xmlns="http://www.w3.org/2000/svg" xml:space="preserve" width="18.0312mm" height="17.9813mm" version="1.1" style="shape-rendering:geometricPrecision; text-rendering:geometricPrecision; image-rendering:optimizeQuality; fill-rule:evenodd; clip-rule:evenodd"
viewBox="0 0 2163.46 2157.47"
 xmlns:xlink="http://www.w3.org/1999/xlink"
 xmlns:xodm="http://www.corel.com/coreldraw/odm/2003">
 <defs>
  <style type="text/css">
   <![CDATA[
    .fil3 {fill:#FEFEFE}
    .fil0 {fill:#282829}
    .fil1 {fill:#FEFEFE;fill-rule:nonzero}
    .fil2 {fill:#FEFEFE;fill-rule:nonzero}
   ]]>
  </style>
 </defs>
 <g id="Capa_x0020_1">
  <metadata id="CorelCorpID_0Corel-Layer"/>
  <polygon class="fil0" points="6.01,0 2163.46,0 2163.46,2157.47 6.01,2157.47 "/>
  <path class="fil1" d="M1334.65 1579.45c172.84,249.7 471.24,377.78 822.8,397.47l0 -40.53 -12.99 -1.46c-169.85,-20.17 -255.76,-44.96 -394.47,-110.61 -90.95,-43.06 -164.2,-88.75 -213.14,-129.98 -47.93,-40.33 -98.88,-95.42 -136.34,-147.88l-65.86 33zm0 0c-19.08,-33 -31.51,-48.64 -49.73,-93.16 -24.06,-58.72 -42.88,-130.23 -55.83,-213.94 -12.91,-83.7 -19.4,-177.13 -19.4,-280.65 0,-57.02 2.23,-116.85 6.08,-179.56 3.82,-62.68 9.93,-124.58 18.6,-185.23 8.7,-61.08 19.81,-118.88 32.74,-174.29 12.92,-55.4 28.77,-103.89 46.9,-145.58 18.29,-42.03 39.03,-75.43 63.1,-100.31 24.06,-24.87 50.96,-37.21 80.08,-37.21 43.67,0 75.21,26.3 95.42,79.27 20.23,52.96 30.36,134.66 30.36,245.46 0,64.71 -4.67,137.13 -14.16,217.18 -9.53,80.09 -25.57,162.25 -48.95,245.87 -29.61,106.04 -60.8,196.25 -93.8,270.96 -32.91,74.51 -60.66,133.85 -83.72,177.94 8.48,31.14 18.44,58.95 29.12,84.11 9.9,23.28 14.23,35.62 29.06,56.13l-13.02 6.53 -14.61 7.32 -24.48 12.26 -13.75 6.89zm-52.57 -670.65c0,33.15 0.79,68.75 2.83,107.16 2,38.42 4.82,77.25 8.89,116.88 4.03,39.23 8.67,78.9 14.54,118.5 5.83,39.26 13.37,77.25 22.25,113.64 16.61,-34.78 36.16,-79.19 58.66,-133.85 22.4,-54.52 44.08,-116.06 65.12,-184.4 21.02,-68.37 38.79,-142.37 53.38,-222.04 14.55,-79.65 21.83,-162.16 21.83,-247.48 0,-53.79 -2.02,-103.14 -6.48,-147.62 -4.44,-44.49 -11.09,-82.86 -19.81,-114.86 -8.69,-31.89 -19.4,-57.02 -32.34,-74.81 -12.97,-17.78 -28.33,-26.7 -45.73,-26.7 -16.58,0 -31.44,11.78 -44.89,35.19 -13.23,23.1 -25.59,53.74 -36.4,91.8 -10.63,37.58 -19.59,81.31 -27.49,130.22 -7.89,48.97 -14.77,99.06 -19.81,150.45 -5.08,51.34 -8.93,101.9 -11.33,152.06 -2.45,50.54 -3.23,95.44 -3.23,135.88z"/>
  <path class="fil2" d="M882.39 1384.34c-118.75,177.31 -293.85,321.76 -560.07,392.43 -117.21,31.09 -227.43,41.05 -322.31,36.74l0 -54.88c47.29,2.39 99.98,-0.31 158.07,-9.33 49.15,-7.45 85.64,-14.88 109.44,-22.49 198.02,-63.29 263.96,-100.31 392.24,-207.72 64.82,-54.29 109.22,-97.91 150.41,-152.07 38.14,-50.11 53.81,-93.2 75.64,-144.89 3.83,-10.61 9.06,-16.44 15.45,-17.3 7.76,-1.02 15.45,0.11 23.34,2.5 13.52,5.22 25.09,10.37 35.55,20.69 4.25,4.16 6.13,6.52 6.3,7.36 0.13,0.84 -0.07,5.16 -1.1,13.47 -1.08,7.89 -1.7,21.31 -1.91,39.85 0.3,18.45 1.55,42.39 4.34,72.13 2.72,29.34 8.17,65.61 15.95,109.33 10.29,58.02 25.78,97.7 46.43,118.64 20.66,20.93 43.12,29.58 66.48,26.47 23.85,-3.14 45.01,-14.15 67.28,-27.84 45.79,-28.17 84.06,-67.35 124.44,-142.71 14.95,-27.86 27.39,-48.19 42.26,-79.75l11.73 41.25c-20.9,38.5 -24.84,45.11 -26.97,50.83 -25.53,68.57 -103.04,159.96 -163.6,199.56 -22.16,14.48 -47.67,23.1 -76.41,26.89 -19.94,2.65 -39.03,1.73 -56.72,-2.38 -17.75,-4.54 -34.51,-14.79 -50.78,-30.72 -15.78,-15.97 -30.32,-39.01 -42.65,-69.21 -12.83,-30.14 -23.4,-70.06 -32.16,-119.25 -4.27,-24.22 -7.98,-50.07 -10.67,-77.59z"/>
  <path class="fil3" d="M931.98 871.89c41.47,0 75.1,33.62 75.1,75.09 0,41.48 -33.63,75.1 -75.1,75.1 -41.48,0 -75.07,-33.62 -75.07,-75.1 0,-41.47 33.6,-75.09 75.07,-75.09z"/>
 </g>
</svg>
